<?xml version="1.0" encoding="utf-8"?>
<!-- Generator: Adobe Illustrator 18.1.1, SVG Export Plug-In . SVG Version: 6.00 Build 0)  -->
<svg version="1.1" id="Layer_1" xmlns="http://www.w3.org/2000/svg" xmlns:xlink="http://www.w3.org/1999/xlink" x="0px" y="0px"
	 viewBox="111 41 350 47" enable-background="new 111 41 350 47" xml:space="preserve">
<g>
	<g>
		<defs>
			<rect id="SVGID_1_" x="110.9" y="43.1" width="350.2" height="42.8"/>
		</defs>
		<clipPath id="SVGID_2_">
			<use xlink:href="#SVGID_1_"  overflow="visible"/>
		</clipPath>
		<path clip-path="url(#SVGID_2_)" fill="#0C93DE" d="M121.8,46.4c0-0.7-0.4-1.1-1.2-1.1c-0.6,0-1.2,0.4-2.1,1
			c-0.3,0.3-0.6,0.6-0.8,0.8c-0.2,0.2-0.4,0.5-0.4,0.8c-1.7,2.1-3,4.8-4,8.2c-0.9,3.1-1.4,6.1-1.4,9.1c0,3.5,0.5,6.8,1.6,10.1
			c1.2,3.9,3,6.8,5.2,8.6c0.7,0.5,1.2,0.8,1.8,0.8c0.2,0,0.5-0.1,0.7-0.3c0.2-0.2,0.4-0.5,0.4-0.7c0-0.8-0.4-1.4-1.2-1.8
			c-1.1-0.6-2.1-1.7-3-3.3c-2.1-3.7-3.2-8-3.2-13.2c0-3,0.5-6.2,1.5-9.4c1.2-3.8,2.8-6.5,4.7-8C121.3,47.4,121.8,46.8,121.8,46.4
			L121.8,46.4z M137.6,65.9c0-0.4-0.2-0.7-0.5-1.1c-0.3-0.3-0.7-0.5-1.1-0.5c-3,1.8-5.9,4.6-8.8,8.4c0-3,0.3-5.7,0.8-8.3
			c0.1-0.5,0.2-0.9,0.3-1.3c0-0.4-0.1-0.9-0.4-1.3c-0.4-0.4-0.7-0.6-1.1-0.6c-0.3,0-0.4,0.2-0.5,0.6c-0.8,3.8-1.2,6.8-1.2,9
			c0,2.1,0.2,3.8,0.7,5.1c0.3,0.9,0.8,1.3,1.5,1.3c0.1,0,0.3-0.3,0.6-0.8c0.2-0.5,0.4-1,0.6-1.5c1.3-2.6,3.7-5.2,7.2-7.7l-0.6,6.2
			c-0.1,1-0.2,1.8-0.3,2.3c0,0.4,0.1,0.8,0.4,1.1c0.3,0.3,0.7,0.5,1.1,0.5c0.3,0,0.4-0.2,0.5-0.6c0.2-2,0.4-3.6,0.5-4.9
			C137.4,69.6,137.6,67.6,137.6,65.9L137.6,65.9z M152.5,68.6c0-1.4-0.4-2.6-1.2-3.8c-0.8-1.2-1.8-2-3.1-2.5
			c-0.4-0.1-0.7-0.2-0.8-0.2c-0.2,0-0.4,0-0.5,0.1c-0.3,0.4-0.8,0.7-1.4,1c-1.2,0.7-2.2,1.8-3,3.3c-0.7,1.5-1.1,3-1.1,4.5
			c0,1.7,0.4,3.1,1.4,4.3c1,1.4,2.2,2.1,3.7,2.1c1,0,1.9-0.4,2.9-1.2s1.7-1.7,2.1-2.7c0.2-0.6,0.4-1,0.5-1.3
			C152.3,71.2,152.5,70.1,152.5,68.6L152.5,68.6z M150.4,69.2c0,1.2-0.4,2.5-1.2,3.7c-0.9,1.4-1.8,2.1-2.7,2.1
			c-0.9,0-1.6-0.4-2.1-1.2c-0.6-0.7-0.8-1.7-0.8-2.8c0-1.4,0.3-2.7,0.9-3.8c0.7-1.2,1.7-1.9,3-2c0.4,0.2,0.9,0.4,1.5,0.4
			C149.9,66.3,150.4,67.4,150.4,69.2L150.4,69.2z M175.3,51.6c0-0.4-0.3-1-0.8-1.5c-0.6-0.5-1-0.8-1.4-0.8c-0.3,0-0.5,0.3-0.6,0.7
			c-1.6,5.4-2.4,10.4-2.4,15.1c0,2.4,0,4.3,0.2,5.8c-0.2,0.4-0.3,0.8-0.3,1.4c0,0.1,0,0.6,0,1.2c0,0.7,0,1.1,0,1.3
			c0,0.6,0.2,1.2,0.7,2c0.5,0.8,1,1.2,1.5,1.2c0.4,0,0.6-0.2,0.6-0.6c-0.4-2.9-0.5-6.7-0.5-11.2c0-1.9,0.1-4.2,0.5-6.9
			c0.3-2.5,0.7-4.6,1.1-6.2l0.3-0.2C174.9,52.7,175.3,52.2,175.3,51.6L175.3,51.6z M189.1,68.6c0-1.4-0.4-2.6-1.2-3.8
			c-0.8-1.2-1.8-2-3.1-2.5c-0.4-0.1-0.7-0.2-0.8-0.2c-0.2,0-0.4,0-0.5,0.1c-0.3,0.4-0.8,0.7-1.4,1c-1.2,0.7-2.2,1.8-3,3.3
			c-0.7,1.5-1.1,3-1.1,4.5c0,1.7,0.4,3.1,1.4,4.3c1,1.4,2.2,2.1,3.7,2.1c1,0,1.9-0.4,2.9-1.2s1.7-1.7,2.1-2.7c0.2-0.6,0.4-1,0.5-1.3
			C188.9,71.2,189.1,70.1,189.1,68.6L189.1,68.6z M187,69.2c0,1.2-0.4,2.5-1.2,3.7c-0.9,1.4-1.8,2.1-2.7,2.1c-0.9,0-1.6-0.4-2.1-1.2
			c-0.6-0.7-0.8-1.7-0.8-2.8c0-1.4,0.3-2.7,0.9-3.8c0.7-1.2,1.7-1.9,3-2c0.4,0.2,0.9,0.4,1.5,0.4C186.4,66.3,187,67.4,187,69.2
			L187,69.2z M202.6,63.1c-0.1-0.3-0.2-0.6-0.2-0.8c-0.2-0.7-0.4-1-0.8-1.1c-0.7-0.2-1.2-0.3-1.6-0.3c-1,0-1.7,0.3-1.9,0.9
			c-1.7,0.6-2.5,1.7-2.5,3.3c0,0.7,0.1,1.3,0.4,2c0.3,0.7,0.6,1.4,0.8,2.1c1.1,3,1.6,4.8,1.6,5.3c0,1.2-0.9,1.7-2.6,1.7
			c-0.3,0-0.8,0-1.4-0.1c-0.7-0.1-1-0.1-1.2-0.1c-0.6,0-0.9,0.5-0.9,1.4c0,0.8,1.1,1.2,3.4,1.2c1.4,0,2.5-0.3,3.4-0.7
			c1-0.6,1.5-1.5,1.5-2.7c0-1-0.4-2.5-1.2-4.8c-0.3-0.9-0.7-1.8-1-2.6c-0.4-1.1-0.6-1.8-0.6-2.2c0-1.1,0.6-1.6,1.8-1.6
			c0.2,0,0.6,0,1,0.1c0.4,0.1,0.8,0.1,1,0.1C202.2,64.2,202.5,63.9,202.6,63.1L202.6,63.1z M242.5,75.5c0-0.1-0.2-0.4-0.5-0.8
			c-0.5-0.6-0.9-1.7-1.2-3.3c-0.3-1.3-0.4-2.5-0.4-3.6c0-1.7-0.3-2.6-1-2.6c-1.6,0-4.3,2.7-8,8c-0.6-1.5-0.9-3.8-0.9-7
			c0-1.6-0.3-2.5-0.8-2.5c-1.1,0-3.9,2.5-8.6,7.3c0.3-1.2,0.5-2.5,0.8-3.8c0.3-1.5,0.5-2.8,0.5-3.8c0-2.1-0.4-3.2-1.3-3.2
			c-0.4,0-0.7,0.1-1,0.4c-0.4,0.3-0.7,0.7-0.8,1.1c0.4,1,0.6,1.7,0.6,2.4c0,1-0.3,2.9-0.9,5.9c-0.5,2.5-0.8,4.3-0.8,5.5
			c0,1.7,0.4,2.6,1.4,2.6c0.5,0,1-0.7,1.2-1.9c0.4-1.5,1.4-3.2,3-5.1c1.3-1.5,2.7-2.8,4.1-3.8c0,3.3,0.4,5.8,1.2,7.6
			c0.5,1.1,1,1.7,1.6,1.7c0.6,0,1.2-0.5,1.8-1.6c1.5-2.5,3.3-4.7,5.2-6.6c0.6,5.8,1.5,8.6,2.8,8.6C242,76.9,242.5,76.4,242.5,75.5
			L242.5,75.5z M260.3,64.1c0-0.7-0.3-1-1-1c-0.3,0-0.6,0.2-0.8,0.7c-1.6,2.8-3.2,5.1-4.8,7c-2.2,2.6-4,3.9-5.5,3.9
			c-0.4,0-0.6-0.3-0.6-0.8c0-0.2,0.1-0.8,0.3-1.9c0.7-4,1.1-6.4,1.1-7.2c0-1.3-0.3-2-0.9-2c-0.3,0-0.6,0.1-0.8,0.4
			c-0.2,0.3-0.3,0.6-0.3,0.8c0,0.1,0,0.2,0,0.4c0,0.2,0,0.3,0,0.4c0,1-0.3,2.8-0.7,5.3c-0.5,2.3-0.7,3.9-0.7,4.6
			c0,0.7,0.3,1.3,0.8,1.8c0.5,0.4,1.1,0.7,1.9,0.7c1.8,0,4.8-2.4,8.8-7.2c-0.4,1.9-0.6,3.9-0.7,5.9c-0.2,0.3-0.3,0.5-0.3,0.8
			c0,0.3,0.1,0.5,0.4,0.7c0.3,0.2,0.6,0.3,0.8,0.3c0.9,0,1.4-0.5,1.4-1.5c0-0.1-0.1-0.4-0.1-1c-0.1-0.5-0.1-0.9-0.1-1.1
			c0-0.3,0-0.8,0.1-1.7c0.5-3.7,0.9-6.1,1.3-7.2C260.1,64.9,260.3,64.5,260.3,64.1L260.3,64.1z M269.8,51.6c0-0.4-0.3-1-0.8-1.5
			c-0.6-0.5-1-0.8-1.4-0.8c-0.3,0-0.5,0.3-0.6,0.7c-1.6,5.4-2.4,10.4-2.4,15.1c0,2.4,0,4.3,0.2,5.8c-0.2,0.4-0.3,0.8-0.3,1.4
			c0,0.1,0,0.6,0,1.2c0,0.7,0,1.1,0,1.3c0,0.6,0.2,1.2,0.7,2c0.5,0.8,1,1.2,1.5,1.2c0.4,0,0.6-0.2,0.6-0.6
			c-0.4-2.9-0.5-6.7-0.5-11.2c0-1.9,0.1-4.2,0.5-6.9c0.3-2.5,0.7-4.6,1.1-6.2l0.3-0.2C269.4,52.7,269.8,52.2,269.8,51.6L269.8,51.6z
			 M284.3,63.8c0-1-0.9-1.6-2.8-1.6c-0.3,0-0.8,0-1.7,0c-0.9,0-1.4,0-1.5,0c0.3-1.6,0.8-3.5,1.4-5.8c0.3-1.3,0.6-2.2,0.8-2.7
			c0.1-0.3,0.2-0.6,0.2-0.8c0-0.8-0.4-1.3-1.2-1.3c-0.4,0-0.8,0.3-1,1c-1.2,4.3-2,7.5-2.5,9.6c-1.5,0-2.3,0.4-2.3,1.2
			c0,0.9,0.6,1.3,1.8,1.3l-1.2,5.9c-0.5,2.4-0.7,4.2-0.7,5.3c0,1.8,0.4,2.7,1.4,2.7c0.3,0,0.5-0.1,0.8-0.4c0.3-0.2,0.4-0.5,0.4-0.8
			c0-0.5-0.2-0.8-0.5-1.1c0-1.7,0.3-3.7,0.7-5.9c0-0.2,0.4-2.1,1.3-5.8c0.2,0,1,0,2.2,0c1.2,0,1.9,0,2.3,0c0.2,0.3,0.5,0.4,0.8,0.5
			h0.5C284,64.7,284.3,64.3,284.3,63.8L284.3,63.8z M292.9,50.8c0-1.5-0.6-2.3-1.8-2.5c-1,0.3-1.5,0.9-1.5,1.7c0,0.3,0,0.5,0,0.7
			c0,1.3,0.7,2.1,2.1,2.3C292.5,52.9,292.9,52.2,292.9,50.8L292.9,50.8z M290.9,64.7c0-1.2-0.7-1.8-2.1-1.9
			c-0.4,0.2-0.6,0.5-0.6,0.8c0,0.1,0,0.4,0.1,0.8c-1,5.1-1.5,8-1.5,9c0,1.2,0.2,2.1,0.6,2.8c0.5,0.9,1,1.4,1.6,1.4
			c0.4,0,0.7-0.3,0.7-0.8c0-0.6-0.3-1.2-0.7-1.7c0-1.9,0.4-4.6,1.2-8C290.5,66.2,290.7,65.4,290.9,64.7L290.9,64.7z M320.4,75.5
			c0-0.1-0.2-0.4-0.5-0.8c-0.5-0.6-0.9-1.7-1.2-3.3c-0.3-1.3-0.4-2.5-0.4-3.6c0-1.7-0.3-2.6-1-2.6c-1.6,0-4.3,2.7-8,8
			c-0.6-1.5-0.9-3.8-0.9-7c0-1.6-0.3-2.5-0.8-2.5c-1.1,0-3.9,2.5-8.6,7.3c0.3-1.2,0.5-2.5,0.8-3.8c0.3-1.5,0.5-2.8,0.5-3.8
			c0-2.1-0.4-3.2-1.3-3.2c-0.4,0-0.7,0.1-1,0.4c-0.4,0.3-0.7,0.7-0.8,1.1c0.4,1,0.6,1.7,0.6,2.4c0,1-0.3,2.9-0.9,5.9
			c-0.5,2.5-0.8,4.3-0.8,5.5c0,1.7,0.4,2.6,1.4,2.6c0.5,0,1-0.7,1.2-1.9c0.4-1.5,1.4-3.2,3-5.1c1.3-1.5,2.7-2.8,4.1-3.8
			c0,3.3,0.4,5.8,1.2,7.6c0.5,1.1,1,1.7,1.6,1.7c0.6,0,1.2-0.5,1.8-1.6c1.5-2.5,3.3-4.7,5.2-6.6c0.6,5.8,1.5,8.6,2.8,8.6
			C319.8,76.9,320.4,76.4,320.4,75.5L320.4,75.5z M330.1,50.8c0-1.5-0.6-2.3-1.8-2.5c-1,0.3-1.5,0.9-1.5,1.7c0,0.3,0,0.5,0,0.7
			c0,1.3,0.7,2.1,2.1,2.3C329.7,52.9,330.1,52.2,330.1,50.8L330.1,50.8z M328.1,64.7c0-1.2-0.7-1.8-2.1-1.9
			c-0.4,0.2-0.6,0.5-0.6,0.8c0,0.1,0,0.4,0.1,0.8c-1,5.1-1.5,8-1.5,9c0,1.2,0.2,2.1,0.6,2.8c0.5,0.9,1,1.4,1.6,1.4
			c0.4,0,0.7-0.3,0.7-0.8c0-0.6-0.3-1.2-0.7-1.7c0-1.9,0.4-4.6,1.2-8C327.7,66.2,328,65.4,328.1,64.7L328.1,64.7z M339.7,51.6
			c0-0.4-0.3-1-0.8-1.5c-0.6-0.5-1-0.8-1.4-0.8c-0.3,0-0.5,0.3-0.6,0.7c-1.6,5.4-2.4,10.4-2.4,15.1c0,2.4,0,4.3,0.2,5.8
			c-0.2,0.4-0.3,0.8-0.3,1.4c0,0.1,0,0.6,0,1.2c0,0.7,0,1.1,0,1.3c0,0.6,0.2,1.2,0.7,2c0.5,0.8,1,1.2,1.5,1.2c0.4,0,0.6-0.2,0.6-0.6
			c-0.4-2.9-0.5-6.7-0.5-11.2c0-1.9,0.1-4.2,0.5-6.9c0.3-2.5,0.7-4.6,1.1-6.2l0.3-0.2C339.3,52.7,339.7,52.2,339.7,51.6L339.7,51.6z
			 M348.8,51.6c0-0.4-0.3-1-0.8-1.5c-0.6-0.5-1-0.8-1.4-0.8c-0.3,0-0.5,0.3-0.6,0.7c-1.6,5.4-2.4,10.4-2.4,15.1c0,2.4,0,4.3,0.2,5.8
			c-0.2,0.4-0.3,0.8-0.3,1.4c0,0.1,0,0.6,0,1.2c0,0.7,0,1.1,0,1.3c0,0.6,0.2,1.2,0.7,2c0.5,0.8,1,1.2,1.5,1.2c0.4,0,0.6-0.2,0.6-0.6
			c-0.4-2.9-0.5-6.7-0.5-11.2c0-1.9,0.1-4.2,0.5-6.9c0.3-2.5,0.7-4.6,1.1-6.2l0.3-0.2C348.4,52.7,348.8,52.2,348.8,51.6L348.8,51.6z
			 M362.6,68.6c0-1.4-0.4-2.6-1.2-3.8c-0.8-1.2-1.8-2-3.1-2.5c-0.4-0.1-0.7-0.2-0.8-0.2c-0.2,0-0.4,0-0.5,0.1
			c-0.3,0.4-0.8,0.7-1.4,1c-1.2,0.7-2.2,1.8-3,3.3c-0.7,1.5-1.1,3-1.1,4.5c0,1.7,0.4,3.1,1.4,4.3c1,1.4,2.2,2.1,3.7,2.1
			c1,0,1.9-0.4,2.9-1.2c1-0.8,1.7-1.7,2.1-2.7c0.2-0.6,0.4-1,0.5-1.3C362.4,71.2,362.6,70.1,362.6,68.6L362.6,68.6z M360.5,69.2
			c0,1.2-0.4,2.5-1.2,3.7c-0.9,1.4-1.8,2.1-2.7,2.1c-0.9,0-1.6-0.4-2.1-1.2c-0.6-0.7-0.8-1.7-0.8-2.8c0-1.4,0.3-2.7,0.9-3.8
			c0.7-1.2,1.7-1.9,3-2c0.4,0.2,0.9,0.4,1.5,0.4C360,66.3,360.5,67.4,360.5,69.2L360.5,69.2z M379.3,65.9c0-0.4-0.2-0.7-0.5-1.1
			c-0.3-0.3-0.7-0.5-1.1-0.5c-3,1.8-5.9,4.6-8.8,8.4c0-3,0.3-5.7,0.8-8.3c0.1-0.5,0.2-0.9,0.3-1.3c0-0.4-0.1-0.9-0.4-1.3
			c-0.4-0.4-0.7-0.6-1.1-0.6c-0.3,0-0.4,0.2-0.5,0.6c-0.8,3.8-1.2,6.8-1.2,9c0,2.1,0.2,3.8,0.7,5.1c0.3,0.9,0.8,1.3,1.5,1.3
			c0.1,0,0.3-0.3,0.6-0.8c0.2-0.5,0.4-1,0.6-1.5c1.3-2.6,3.7-5.2,7.2-7.7l-0.6,6.2c-0.1,1-0.2,1.8-0.3,2.3c0,0.4,0.1,0.8,0.4,1.1
			c0.3,0.3,0.7,0.5,1.1,0.5c0.3,0,0.4-0.2,0.5-0.6c0.2-2,0.4-3.6,0.5-4.9C379.2,69.6,379.3,67.6,379.3,65.9L379.3,65.9z M395.7,68.1
			c0-0.3-0.1-0.6-0.4-1c0-0.9-0.1-1.8-0.4-2.5c0.1-0.3,0.1-0.4,0.1-0.5c0-0.4-0.2-0.8-0.6-1.1c-0.4-0.3-0.8-0.5-1.2-0.5
			c-1.7,0-3.7,1.1-6.1,3.3c-0.8,0.7-1.3,1.3-1.6,1.7c-1.5,1.9-2.3,3.7-2.3,5.4c0,1.1,0.3,2,1,2.8c0.7,1,1.5,1.4,2.5,1.4
			c1.9,0,3.8-1.2,5.8-3.6c0.1,1.4,0.3,2.3,0.3,3c0.1,1.2,0.5,1.8,1.2,1.8c0.8,0,1.2-0.4,1.2-1.1c0-0.1-0.1-0.6-0.4-1.7
			c-0.1-0.6-0.2-1.2-0.2-1.8c0-1.7,0.3-3.3,0.8-4.9C395.6,68.5,395.7,68.3,395.7,68.1L395.7,68.1z M393.1,67.1c0,1.6-0.7,3.3-2.1,5
			s-2.8,2.6-4.1,2.6c-1,0-1.5-0.6-1.5-1.9c0-1.2,0.7-2.7,2.3-4.4c0.6-0.7,1.4-1.4,2.3-2.1c1-0.8,1.8-1.2,2.3-1.2
			C392.8,65.1,393.1,65.8,393.1,67.1L393.1,67.1z M412.3,63.8c0-0.4-0.2-0.8-0.5-1.2c-0.4-0.4-0.7-0.6-1.1-0.6
			c-1.5,0-2.9,0.6-4.3,1.7c-1.5,1.1-2.6,2.5-3.5,4.2c-0.1-0.7-0.4-1.8-0.7-3.2c-0.3-1.3-0.8-2-1.7-2c-0.2,0-0.3,0.1-0.5,0.4
			c-0.2,0.3-0.3,0.6-0.3,0.8c0,0.6,0.1,1.4,0.3,2.4c0.1,0.5,0.3,1,0.7,1.5c0.2,1.1,0.4,2.1,0.4,3.2c0,1-0.1,2-0.3,3.1
			c-0.2,0.9-0.3,1.5-0.4,1.9c0,0.5,0.1,0.9,0.4,1.4c0.3,0.4,0.6,0.7,1,0.7c0.5,0,0.9-1.2,1.2-3.7c0.6-4.7,2.5-7.7,5.7-9.2
			c0.4,0.1,0.7,0.2,0.7,0.2c0.4,0,0.8-0.1,1.5-0.4C411.9,64.5,412.3,64.2,412.3,63.8L412.3,63.8z M420.5,50.8c0-1.5-0.6-2.3-1.8-2.5
			c-1,0.3-1.5,0.9-1.5,1.7c0,0.3,0,0.5,0,0.7c0,1.3,0.7,2.1,2.1,2.3C420.1,52.9,420.5,52.2,420.5,50.8L420.5,50.8z M418.5,64.7
			c0-1.2-0.7-1.8-2.1-1.9c-0.4,0.2-0.6,0.5-0.6,0.8c0,0.1,0,0.4,0.1,0.8c-1,5.1-1.5,8-1.5,9c0,1.2,0.2,2.1,0.6,2.8
			c0.5,0.9,1,1.4,1.6,1.4c0.4,0,0.7-0.3,0.7-0.8c0-0.6-0.3-1.2-0.7-1.7c0-1.9,0.4-4.6,1.2-8C418.1,66.2,418.4,65.4,418.5,64.7
			L418.5,64.7z M434.7,68.6c0-1.4-0.4-2.6-1.2-3.8c-0.8-1.2-1.8-2-3.1-2.5c-0.4-0.1-0.7-0.2-0.8-0.2c-0.2,0-0.4,0-0.5,0.1
			c-0.3,0.4-0.8,0.7-1.4,1c-1.2,0.7-2.2,1.8-3,3.3c-0.7,1.5-1.1,3-1.1,4.5c0,1.7,0.4,3.1,1.4,4.3c1,1.4,2.2,2.1,3.7,2.1
			c1,0,1.9-0.4,2.9-1.2c1-0.8,1.7-1.7,2.1-2.7c0.2-0.6,0.4-1,0.5-1.3C434.5,71.2,434.7,70.1,434.7,68.6L434.7,68.6z M432.5,69.2
			c0,1.2-0.4,2.5-1.2,3.7c-0.9,1.4-1.8,2.1-2.7,2.1c-0.9,0-1.6-0.4-2.1-1.2c-0.6-0.7-0.8-1.7-0.8-2.8c0-1.4,0.3-2.7,0.9-3.8
			c0.7-1.2,1.7-1.9,3-2c0.4,0.2,0.9,0.4,1.5,0.4C432,66.3,432.5,67.4,432.5,69.2L432.5,69.2z M448.1,63.1c-0.1-0.3-0.2-0.6-0.2-0.8
			c-0.2-0.7-0.4-1-0.8-1.1c-0.7-0.2-1.2-0.3-1.6-0.3c-1,0-1.7,0.3-1.9,0.9c-1.7,0.6-2.5,1.7-2.5,3.3c0,0.7,0.1,1.3,0.4,2
			c0.3,0.7,0.6,1.4,0.8,2.1c1.1,3,1.6,4.8,1.6,5.3c0,1.2-0.9,1.7-2.6,1.7c-0.3,0-0.8,0-1.4-0.1c-0.7-0.1-1-0.1-1.2-0.1
			c-0.6,0-0.9,0.5-0.9,1.4c0,0.8,1.1,1.2,3.4,1.2c1.4,0,2.5-0.3,3.4-0.7c1-0.6,1.5-1.5,1.5-2.7c0-1-0.4-2.5-1.2-4.8
			c-0.3-0.9-0.7-1.8-1-2.6c-0.4-1.1-0.6-1.8-0.6-2.2c0-1.1,0.6-1.6,1.8-1.6c0.2,0,0.6,0,1,0.1c0.4,0.1,0.8,0.1,1,0.1
			C447.7,64.2,448.1,63.9,448.1,63.1L448.1,63.1z"/>
		<path clip-path="url(#SVGID_2_)" fill="#0C93DE" d="M460,65.2c0-2.9-0.5-6-1.4-9.1c-1-3.3-2.3-6.1-4-8.2c-0.1-0.2-0.1-0.4-0.3-0.6
			c-0.2-0.3-0.6-0.6-1-1.1c-0.8-0.7-1.5-1-2.1-1c-0.8,0-1.2,0.4-1.2,1.1c0,0.4,0.4,1,1.4,1.7c2,1.5,3.6,4.2,4.7,8
			c1,3.2,1.5,6.3,1.5,9.4c0,5.1-1.1,9.5-3.2,13.2c-0.9,1.5-1.9,2.6-3,3.3c-0.8,0.4-1.2,1-1.2,1.8c0,0.2,0.1,0.5,0.4,0.7
			c0.2,0.2,0.4,0.3,0.7,0.3c0.5,0,1.1-0.3,1.8-0.8c2.2-1.8,3.9-4.7,5.2-8.6C459.4,72,460,68.7,460,65.2L460,65.2z"/>
	</g>
</g>
</svg>
