<?xml version="1.0" encoding="utf-8"?>
<!-- Generator: Adobe Illustrator 18.1.1, SVG Export Plug-In . SVG Version: 6.00 Build 0)  -->
<svg version="1.1" id="Layer_1" xmlns="http://www.w3.org/2000/svg" xmlns:xlink="http://www.w3.org/1999/xlink" x="0px" y="0px"
	 viewBox="0 0 1000.9 120" enable-background="new 0 0 1000.9 120" xml:space="preserve">
<g id="dd-logo">
	<g>
		<path fill="#147FD7" d="M257,78.5V51.9c0-16.7-6.6-24.2-20.1-24.2c-10.4,0-16.8,5-20.2,14.1c-2.2-9.5-9-14.1-18.9-14.1
			c-9.4,0-15.8,4.5-19.8,12.6V28.1c-2,0.6-7.3,1.9-13.6,1.9H155v9h5.1c1.7,0,0.9,0.6,0.9,3.7v35.8c0,2.9,0.5,3.5-0.9,3.5H155v10h31
			V82h-4.4c-1.4,0-1.6-0.6-1.6-3.5V57.2c0-11.8,3.4-18.1,11.3-18.1c6.6,0,9.7,4.2,9.7,12.6v26.7c0,2.9-0.3,3.5-1.7,3.5H194v10h32V82
			h-5.2c-1.4,0-2.8-0.6-2.8-3.5V57.2c0-11.8,3.9-18.1,11.8-18.1c7,0,10.2,4.2,10.2,13.7v25.6c0,2.9-0.1,3.5-1.5,3.5H234v10h31V82h-5
			C258.6,82,257,81.4,257,78.5z"/>
		<path fill="#147FD7" d="M37.5,6H0v11h6.3C8.1,17,8,17,8,19.9v58.2C8,81.2,8.1,82,6.3,82H0v10h36.6C67,92,81.9,75.8,81.9,49.3
			C81.9,21.9,67.7,6,37.5,6z M63,52.3C63,72.6,57.2,82,38.1,82H26V17h12.8C57.6,17,63,25.3,63,46.3V52.3z"/>
		<path fill="#147FD7" d="M119.7,27.7c-19.1,0-32.2,13.2-32.2,32.6c0,19.1,11.3,32.7,33.9,32.7c16,0,24.5-7.9,27.9-17.8l-9.7-4.3
			c-2.9,7.5-8,12.2-16.8,12.2c-11.6,0-17.3-9-17.7-19H150v-3.6C150,39.9,139.3,27.7,119.7,27.7z M104.8,55
			c0.8-12,5.9-17.4,14.9-17.4c9,0,12.9,4.4,13.1,17.4H104.8z"/>
		<path fill="#147FD7" d="M302.3,27.7c-20,0-33.4,13.2-33.4,32.6c0,19.6,13.1,32.7,32.8,32.7c19.9,0,33.1-13.2,33.1-32.7
			S321.8,27.7,302.3,27.7z M318,61.2c0,14.8-5.2,21.6-16.1,21.6c-10.8,0-15.9-6.7-15.9-21.6v-1.7c0-14.9,5.2-21.6,16.1-21.6
			c10.7,0,15.9,6.7,15.9,21.6V61.2z"/>
		<path fill="#147FD7" d="M576,53.2c0,5.3,4.2,9.4,10.1,9.4c7.3,0,12.5-5.3,12.5-13.7c0-12.9-10.7-21.1-28.5-21.1
			c-21.4,0-34.1,12.2-34.1,32.5c0,20.8,12,32.8,33.9,32.8c15.9,0,23.9-7.6,27.8-17.9l-9.5-4.5c-3.1,8.3-8.7,12.1-17.7,12.1
			c-11.5,0-17.2-7.8-17.2-22v-2c0-13.9,6.4-21.3,17.9-21.3c7.1,0,11.4,2,13.3,5.9C579.1,44.2,576,48.1,576,53.2z"/>
		<path fill="#147FD7" d="M644,30v9h5.8c2.2,0,3.6,1.1,2.4,3.9L640,72.7l-13.6-30c-0.9-2-0.3-3.6,2-3.6h4.6v-9h-33v9h4.6
			c1.7,0,2.1,0.4,3.4,3.2l22,47.9v0.4c-4,9.9-7.7,14-13.7,14.5c4.5-7.6,0.9-14.4-6.9-14.4c-6.5,0-10.5,4.3-10.5,11.1
			c0,8.5,6.9,13.2,16.6,13.2c13.5,0,19.7-7.4,26.6-23.7l20.5-49.1c1.1-2.9,1.8-3.2,3.8-3.2h4.6v-9H644z"/>
		<path fill="#147FD7" d="M447.1,27.7c-7.4,0-14.1,4.1-17.1,14V28.1c-2,0.6-8,1.9-14.3,1.9H406v9h5.4c1.7,0,1.6,0.6,1.6,3.7v35.8
			c0,2.9-0.2,3.5-1.6,3.5H406v10h32V82h-5.1c-1.4,0-2.9-0.6-2.9-3.5V59c0-13,4.7-20.8,13.1-20.8c1.9,0,3.5,0.5,4.4,1.3
			c-3.8,1.1-6,4.7-6,8.1c0,4.6,4,8.4,8.7,8.4c7.3,0,12-5.3,12-13.4C462.1,33.6,456.3,27.7,447.1,27.7z"/>
		<path fill="#147FD7" d="M525,78.5V48.7c0-15.1-8.2-21-27.5-21c-16,0-29.3,4.5-29.3,16.7c0,6.6,4.1,10.2,10.5,10.2
			c5.6,0,9.9-3.7,9.9-9.3c0-2.8-0.9-5.1-2.4-6.9c2-0.6,4.9-1,8.3-1c9,0,13.4,3.3,13.4,11.6v3.6c-26,3.8-41.4,8.7-41.4,24.2
			c0,9.2,6.9,16.3,18.6,16.3c10.3,0,19.4-5.1,22.6-11.9c0.9,4.3,1.9,6.9,3.8,10.9H532V82h-5.2C525.3,82,525,80.9,525,78.5z
			 M508,64.9c-1,10.4-6.3,17.6-15.8,17.6c-5.5,0-8.8-3.3-8.8-8.7c0-8.5,8.7-11.6,24.7-13.7V64.9z"/>
		<path fill="#147FD7" d="M379.9,53.2c0,5.3,4.2,9.4,10.1,9.4c7.3,0,12.5-5.3,12.5-13.7c0-12.9-10.7-21.1-28.5-21.1
			c-21.4,0-34.1,12.2-34.1,32.5c0,20.8,12,32.8,33.9,32.8c15.9,0,23.9-7.6,27.8-17.9l-9.5-4.5c-3.1,8.3-8.7,12.1-17.7,12.1
			c-11.5,0-17.2-7.8-17.2-22v-2c0-13.9,6.4-21.3,17.8-21.3c7.1,0,11.4,2,13.3,5.9C383.1,44.2,379.9,48.1,379.9,53.2z"/>
	</g>
	<g>
		<path fill="#147FD7" d="M980.6,99.4c-1.2-0.4-2.6-0.8-4.3-1.3c-1.7-0.5-3.6-1-5.8-1.6c-4.4-1.1-9.7-2.3-15.8-3.4
			c-1.9-0.4-4-0.7-6.1-1c0.1-0.2,0.1-0.3,0.2-0.5l20.5-49.2c1.1-2.9,1.8-3.4,3.8-3.4h4.9v-9h-26v9h4.6c2.2,0,3.6,1.2,2.4,4
			l-12.2,29.8l-13.6-30.1c-0.9-2-0.3-3.7,2-3.7h4.8v-9h-33v9h4.4c1.7,0,2.5,0.6,3.8,3.4l22.4,48c-1.2-0.2-2.4-0.3-3.6-0.4
			c-7.6-0.9-16.1-1.7-24.9-2.3c-1.9-0.1-3.1-0.2-6.1-0.3V82h-4.5c-1.3,0-2.5-0.4-2.5-3.3V5.8c-2,0.6-8.2,2.2-14.4,2.2H870v9h7.1
			c1.5,0,1.9,0.4,1.9,3.4v58.3c0,2.9-0.6,3.3-1.9,3.3H872v4.5c-2,0-3,0-6,0V82h-4.3c-1.4,0-1.7-0.6-1.7-3.3V28.3
			c-4,0.6-8.9,1.7-15.2,1.7H835v9h4.6c2.2,0,3.4,1.3,3.4,5.2v34.5c0,2.7-1.2,3.3-2.6,3.3H835v5.4c-2,0.1-3,0.1-4,0.2V82h-5
			c-1.5,0-3-0.9-3-3.3V48.9c0-15.1-7.7-21-26.9-21c-16,0-29,4.5-29,16.7c0,6.6,4.2,10.2,10.7,10.2c5.6,0,10-3.7,10-9.3
			c0-2.8-0.9-5.1-2.4-6.9c2-0.6,4.3-1,7.8-1c9,0,12.9,3.3,12.9,11.6v3.6c-25,3.8-40.9,8.7-40.9,24.2c0,7.1,4.4,13,11.8,15.3
			c-5.1,0.6-10,1.2-14.9,1.8c-4.7,0.6-9.4,1-13.9,1.5c-4.6,0.5-9,0.9-13.4,1.3c-8.7,0.7-16.9,1.4-24.5,1.7
			c-3.8,0.2-7.4,0.4-10.9,0.5c-3.5,0.1-6.7,0.1-9.8,0.1c-3.1,0-6-0.1-8.6-0.2c-2.7-0.1-5.1-0.3-7.3-0.5c-4.4-0.4-7.8-1.1-10.2-1.8
			c-1.2-0.3-2-0.7-2.6-0.9c-0.6-0.3-0.9-0.4-0.9-0.4s0.3,0.2,0.8,0.5c0.6,0.3,1.4,0.8,2.5,1.3c1.1,0.5,2.5,1.1,4.2,1.6
			c1.7,0.5,3.6,1.1,5.9,1.6c4.4,1,9.8,1.8,16.1,2.4c6.2,0.6,13.3,1,20.9,1.1c7.7,0.1,16,0,24.8-0.5c8.8-0.4,18-1.1,27.6-2.1
			c4.8-0.5,9.6-1.1,14.5-1.6c2.4-0.3,4.9-0.5,7.4-0.8c2.5-0.3,4.9-0.5,7.4-0.8c10-1,20.1-1.9,30.2-2.7c10.1-0.8,20.3-1.5,30.2-1.9
			c10-0.5,19.8-0.7,29.3-0.9c9.5-0.2,18.7-0.1,27.4,0.1c0.3,0,0.6,0,1,0c-2.8,1.9-4.4,5.1-4.4,9.3c0,8.5,6.8,13.2,16.5,13.2
			c12.6,0,18.8-6.4,25.2-20.5c2.4,0.2,4.8,0.5,7,0.7c6.2,0.7,11.5,1.5,15.9,2.2c2.2,0.4,4.2,0.8,5.9,1.1c1.7,0.4,3.2,0.6,4.3,0.9
			c2.3,0.5,3.6,0.8,3.6,0.8S982.9,100.2,980.6,99.4z M806.8,81c0.6,3.1,1.4,5.8,2.4,8c-4,0.3-8,0.7-11.9,1
			C801.7,87.9,805.1,84.6,806.8,81z M806,60.3v4.8c0,10.4-5.7,17.6-15.3,17.6c-5.5,0-9.1-3.3-9.1-8.7C781.6,65.5,791,62.4,806,60.3z
			 M923.4,105.3c2.9-5,2.3-9.6-0.7-12.2c3.8,0.2,7.5,0.4,11,0.6c0.8,0.1,1.7,0.1,2.5,0.2C932.6,101.6,928.8,104.9,923.4,105.3z"/>
		<path fill="#147FD7" d="M759.1,50.3c0-27.4-14.3-42.3-44.4-42.3H677v9h6.5c1.8,0,1.5,0.2,1.5,3.2v58.2c0,3.1,0.3,3.7-1.5,3.7H677
			v10h36.8C744.2,92,759.1,76.8,759.1,50.3z M704,17h12c18.8,0,23,8.5,23,29.5v6c0,20.4-4.6,29.5-23.7,29.5H704V17z"/>
	</g>
	<g>
		<g>
			<defs>
				<polyline id="SVGID_1_" points="842.1,24.3 849.9,18.6 857.6,24.3 854.6,15 862.4,9.3 852.8,9.3 849.9,0 846.9,9.3 837.4,9.3
					845.1,15 842.1,24.3 				"/>
			</defs>
			<use xlink:href="#SVGID_1_"  overflow="visible" fill-rule="evenodd" clip-rule="evenodd" fill="#147FD7"/>
			<clipPath id="SVGID_2_">
				<use xlink:href="#SVGID_1_"  overflow="visible"/>
			</clipPath>
		</g>
	</g>
	<g>
		<path fill="none" d="M911.3,108.8c-1.2,0-2.5,0-3.8,0c2.7,4.2,8,6.4,14.7,6.4c6.9,0,11.9-1.9,16-6c-4.4-0.2-8.9-0.3-13.5-0.4
			C920.4,108.8,915.9,108.8,911.3,108.8z"/>
		<path fill="#F55B5B" d="M996.4,115c-1.1-0.4-2.6-0.8-4.3-1.4c-1.7-0.5-3.6-1.1-5.8-1.7c-4.4-1.2-9.7-2.4-15.9-3.7
			c-6.2-1.2-13.1-2.3-20.8-3.4c-0.9-0.1-1.9-0.2-2.8-0.3c-1.1,1.8-2.2,3.4-3.4,4.9c2,0.1,4,0.2,5.9,0.3c7.6,0.4,14.6,1,20.7,1.7
			c6.2,0.6,11.5,1.3,15.9,2.1c2.2,0.3,4.2,0.7,5.9,1c1.7,0.3,3.2,0.6,4.3,0.9c2.4,0.5,3.6,0.8,3.6,0.8S998.6,115.8,996.4,115z"/>
		<path fill="#F55B5B" d="M901.8,101.3c-1.5,0-3-0.1-4.5-0.1c-9.6-0.2-19.5-0.2-29.6,0c-10.1,0.2-20.3,0.6-30.5,1.3
			c-5.1,0.3-10.2,0.7-15.3,1.1c-5.1,0.4-10.1,0.9-15.2,1.4c-5,0.5-10,1-14.9,1.6c-4.9,0.6-9.7,1.2-14.5,1.7
			c-9.5,1.1-18.6,2.1-27.3,2.9c-4.3,0.4-8.6,0.7-12.7,1.1c-4.1,0.3-8,0.6-11.8,0.8c-7.6,0.5-14.6,0.7-20.7,0.8c-3.1,0.1-6,0-8.6,0
			c-2.7-0.1-5.1-0.2-7.3-0.4c-2.2-0.2-4.2-0.4-5.9-0.7c-1.7-0.3-3.1-0.6-4.3-0.9c-1.2-0.3-2-0.6-2.6-0.8c-0.6-0.2-0.9-0.4-0.9-0.4
			s0.3,0.2,0.8,0.5c0.5,0.3,1.4,0.8,2.5,1.4c1.1,0.5,2.5,1.1,4.2,1.7c1.7,0.6,3.6,1.1,5.9,1.7c4.4,1.1,9.8,2,16.1,2.7
			c6.2,0.7,13.3,1.2,21,1.4c3.8,0.1,7.9,0.1,12,0.1c4.1,0,8.4-0.1,12.8-0.3c8.8-0.3,18.1-1,27.7-1.9c2.4-0.2,4.8-0.5,7.2-0.8
			c2.4-0.3,4.8-0.5,7.3-0.8c2.4-0.3,4.9-0.5,7.4-0.8c2.5-0.3,4.9-0.5,7.4-0.8c5-0.5,10-1,15.1-1.4c5-0.5,10.1-0.9,15.2-1.3
			c10.1-0.8,20.3-1.4,30.3-1.9c10-0.5,19.8-0.8,29.3-1c2,0,3.9-0.1,5.8-0.1c-0.9-2-1.4-4.3-1.4-6.8
			C901.8,101.8,901.8,101.5,901.8,101.3z"/>
		<path fill="#2E3192" d="M877.9,18.8c0,0-0.1-0.4-0.1-0.4c0,0-0.2,0-0.2,0c0,0.1-0.3,0.4-0.4,0.9C877.7,19.3,877.9,18.9,877.9,18.8
			z"/>
	</g>
</g>
</svg>
